# xmcd
# 
# Track frame offsets:
#     183
#     27728
#     37673
#     72070
#     115640
#     145265
#     179303
#     217798
#     240428
# 
# Disc length: 3491
# 
# Revision: 8
# Processed by: cddbd v1.5.2PL0 Copyright (c) Steve Scherf et al.
# Submitted via: fre:ac v1.0.17
# 
DISCID=6e0da109
DTITLE=Beethoven - Vladimir Ashkenazy - Beethoven Piano Sonatas
DYEAR=1979
DGENRE=Classical
TTITLE0=Sonata No. 14 in C-sharp minor, Op. 27, No. 2 - I. Adagio sostenuto
TTITLE1=Sonata No. 14 in C-sharp minor, Op. 27, No. 2 - II. Allegretto
TTITLE2=Sonata No. 14 in C-sharp minor, Op. 27, No. 2 - III. Presto agitato
TTITLE3=Sonata No. 23 in F minor, Op. 57 - I. Allegro assai
TTITLE4=Sonata No. 23 in F minor, Op. 57 - II. Allegro con moto
TTITLE5=Sonata No. 23 in F minor, Op. 57 - III. Allegro, ma non troppo
TTITLE6=Sonata No. 8 in C minor, Op. 13 - I. Grave
TTITLE7=Sonata No. 8 in C minor, Op. 13 - II. Adagio cantabile
TTITLE8=Sonata No. 8 in C minor, Op. 13 - III. Rondo. Allegro
EXTD=Interprete: Vladimir Ashkenazy, piano
EXTT0=
EXTT1=
EXTT2=
EXTT3=
EXTT4=
EXTT5=
EXTT6=
EXTT7=
EXTT8=
PLAYORDER=
